<svg id="Layer_2" data-name="Layer 2" xmlns="http://www.w3.org/2000/svg" width="64" height="64" viewBox="0 0 64 64">
  <g id="invisible_box" data-name="invisible box">
    <rect id="Rectangle_19" data-name="Rectangle 19" width="64" height="64" fill="none"/>
  </g>
  <g id="Q3_icons" data-name="Q3 icons" transform="translate(3.037 1.995)">
    <g id="Group_2" data-name="Group 2">
      <path id="Path_12" data-name="Path 12" d="M59.992,33.556a88.617,88.617,0,0,1-6.3-9.835C51.633,9.105,43.274,1.729,28.749,2c-8.222.137-15.074,2.869-19.6,7.923S2.575,21.536,3.123,29.049,5.316,39.294,8.879,43.8s3.974,5.327,2.467,10.928a2.595,2.595,0,0,0,1.918,3.278A2.742,2.742,0,0,0,16.69,56.1c1.918-7.65.822-9.972-3.563-15.572A18.816,18.816,0,0,1,8.6,28.639a19.083,19.083,0,0,1,4.522-15.026C16.69,9.788,22.171,7.6,28.886,7.466S46.152,9.105,48.344,24.541c.137,1.639,2.6,5.464,5.07,9.289l-3.015.956a2.732,2.732,0,0,0-1.781,2.6v3.961c0,3.825.137,6.83-.822,7.786s-2.467,1.093-5.481,1.093a5.2,5.2,0,0,0-5.344,5.327v3.825a2.741,2.741,0,0,0,5.481,0V55.686c3.289,0,6.989-.41,9.318-2.732s2.467-6.147,2.33-11.748V39.294l4.522-1.5A2.873,2.873,0,0,0,60.4,36.015,2.725,2.725,0,0,0,59.992,33.556Z" transform="translate(-3.037 -1.995)"/>
      <path id="Path_13" data-name="Path 13" d="M24.7,15.2l-.4-1,1.2-1.9a7.7,7.7,0,0,0-1.8-1.8l-1.9,1.2-1-.4-.5-2.2H17.7l-.5,2.2-1,.4-1.9-1.2a7.7,7.7,0,0,0-1.8,1.8l1.2,1.9-.4,1-2.2.5A5.7,5.7,0,0,0,11,17a5.7,5.7,0,0,0,.1,1.3l2.2.5.4,1-1.2,1.9a7.7,7.7,0,0,0,1.8,1.8l1.9-1.2,1,.4.5,2.2h2.6l.5-2.2,1-.4,1.9,1.2a7.7,7.7,0,0,0,1.8-1.8l-1.2-1.9.4-1,2.2-.5A5.7,5.7,0,0,0,27,17a5.7,5.7,0,0,0-.1-1.3ZM19,19a2,2,0,1,1,2-2A2,2,0,0,1,19,19Z" transform="translate(1.729 2.063)"/>
    </g>
  </g>
</svg>
