<svg id="Layer_2-web" data-name="Layer 2-web" xmlns="http://www.w3.org/2000/svg" width="48" height="64" viewBox="0 0 48 64">
  <g id="invisible_box" data-name="invisible box">
    <rect id="Rectangle_20" data-name="Rectangle 20" width="48" height="64" fill="none"/>
  </g>
  <g id="icons_Q2" data-name="icons Q2" transform="translate(2.023 16.687)">
    <path id="Path_14" data-name="Path 14" d="M20,40h-.5a2,2,0,0,1-1.4-2.5l8-27.9a2,2,0,0,1,3.8,1l-8,28A1.9,1.9,0,0,1,20,40Z" transform="translate(-2.272 -8.462)"/>
    <path id="Path_15" data-name="Path 15" d="M14,35a2,2,0,0,0,1.3-3.5L7,24l8.3-7.5a2,2,0,0,0-2.6-3l-10,9a2,2,0,0,0,0,3l10,9A1.9,1.9,0,0,0,14,35Z" transform="translate(-2.023 -8.462)"/>
    <path id="Path_16" data-name="Path 16" d="M34,35a2,2,0,0,1-1.3-3.5L41,24l-8.3-7.5a2,2,0,1,1,2.6-3l10,9a2,2,0,0,1,0,3l-10,9A1.9,1.9,0,0,1,34,35Z" transform="translate(-2.523 -8.462)"/>
  </g>
</svg>
