<svg id="Layer_2-mobile" data-name="Layer 2-mobile" xmlns="http://www.w3.org/2000/svg" width="48" height="48" viewBox="0 0 48 48">
  <g id="invisible_box" data-name="invisible box">
    <rect id="Rectangle_21" data-name="Rectangle 21" width="48" height="48" fill="none"/>
  </g>
  <g id="icons_Q2" data-name="icons Q2">
    <g id="Group_3" data-name="Group 3">
      <path id="Path_17" data-name="Path 17" d="M42,23V41H34V23h8m2-4H32a2,2,0,0,0-2,2V43a2,2,0,0,0,2,2H44a2,2,0,0,0,2-2V21A2,2,0,0,0,44,19Z"/>
      <path id="Path_18" data-name="Path 18" d="M38,7H7A2,2,0,0,0,5,9V31a2,2,0,0,0,2,2H26V29H9V11H36v4h4V9A2,2,0,0,0,38,7Z"/>
      <path id="Path_19" data-name="Path 19" d="M26,37v4H4a2,2,0,0,1,0-4Z"/>
    </g>
  </g>
</svg>
